<svg width="48" height="48" viewBox="0 0 48 48" fill="none" xmlns="http://www.w3.org/2000/svg">
<g clip-path="url(#clip0_2194_13)">
<path d="M24.0165 4.72347H32.9565C33.9468 4.72347 35.1334 5.87285 35.4407 6.77512C35.6641 7.43025 35.6847 9.53338 35.6176 10.2683C35.5052 11.4936 34.4478 12.5027 33.1967 12.4319L32.8119 16.1877L33.3038 16.2328L37.0237 14.7474C37.6899 14.6586 38.1276 15.2546 37.8577 15.8749L35.7105 20.1404H37.9817C39.7157 20.1404 42.0798 21.8098 43.0379 23.1934C44.3471 25.0855 45.1127 29.9597 44.7667 32.2032C44.542 33.6589 44.0295 34.7027 44.1198 36.2768C44.2735 38.945 45.1089 41.1215 46.7318 43.2118C47.4614 44.1514 48.2206 44.486 47.9417 45.9649C47.5543 48.0165 45.544 47.9895 43.8913 47.7771C43.096 47.6755 41.8319 47.2031 41.1708 47.2057C40.7306 47.2069 40.0604 47.5416 39.5776 47.6471C38.3561 47.9149 37.2057 47.956 35.9649 47.7771C35.2122 47.669 33.9739 47.1645 33.3426 47.1645C32.9113 47.1645 31.7557 47.5699 31.1863 47.6639C30.6169 47.7578 29.9468 47.8595 29.3839 47.8904C22.9914 48.2405 16.2799 47.6162 9.85386 47.8904C7.68989 47.7218 6.09014 46.1129 5.85774 43.9737L2.46329 12.4307C1.34515 12.5195 0.198602 11.5413 0.0552838 10.4472C-0.0609202 9.5617 -0.0118564 7.22174 0.365161 6.43661C0.693115 5.75444 1.83708 4.72347 2.60919 4.72347H11.646V2.65252C11.646 1.66402 12.9927 0.432263 13.9236 0.201871C15.1244 -0.0967376 19.5646 -0.00277897 20.9759 0.095041C22.0992 0.172267 23.0353 0.639486 23.5827 1.63957C23.7157 1.88283 24.0165 2.5045 24.0165 2.74905V4.72476V4.72347ZM22.4697 4.72347V2.8443C22.4697 2.33589 21.6563 1.71679 21.1566 1.64858C19.1179 1.37185 16.4452 1.80174 14.3458 1.68333C13.921 1.71551 13.1915 2.46203 13.1915 2.8443V4.72347H22.4697ZM34.0669 7.80609C34.0837 7.00808 33.4588 6.34007 32.666 6.26413L2.67375 6.32978C2.05528 6.48938 1.56206 7.16382 1.59305 7.8048H34.0669V7.80609ZM34.0669 9.34804H1.59434C1.58659 10.0276 1.44457 10.7896 2.31739 10.8913L33.6576 10.8166C34.227 10.518 34.0475 9.88219 34.0682 9.34804H34.0669ZM31.6512 12.4307H4.01009L7.40454 43.7794C7.36452 44.8181 8.62597 46.3446 9.66406 46.3446H20.3432C19.553 44.1848 21.9365 42.5927 21.9739 40.4072L24.0579 14.4488C24.1883 14.1386 24.4078 14.0086 24.7383 13.97C25.4278 13.8902 27.2431 13.8902 27.9313 13.97C28.6195 14.0498 28.6815 14.5003 28.6583 15.0834C28.6027 16.4889 28.3574 17.9137 28.2683 19.3205C28.249 19.6243 28.2774 19.9319 28.2683 20.2344L30.6841 20.1366C30.4142 19.0232 29.6666 17.6666 29.4704 16.5777C29.4123 16.2508 29.3761 16.023 29.6176 15.7527C30.156 15.1503 31.0947 15.947 31.3167 15.615L31.6499 12.4307H31.6512ZM27.012 15.5146H25.4652L25.0301 22.4521C25.4239 21.8149 25.9636 21.2975 26.6298 20.9423L27.012 15.5146ZM30.2012 36.3245V37.8664C28.4478 37.896 26.7189 37.5974 25.0249 37.1868C23.5879 37.7699 23.7467 39.4714 23.4859 40.7585C23.318 41.5874 23.0818 42.4253 22.7448 43.1989C22.5356 43.6803 21.7919 44.7293 21.7157 45.0639C21.5582 45.7564 22.0398 46.288 22.706 46.3484C24.4969 46.5132 27.4523 46.4463 29.287 46.3484C29.7932 46.3214 30.3639 46.1837 30.8777 46.1502L28.9552 44.6379C28.9062 44.392 29.8151 43.5464 29.9597 43.5464C32.1534 45.5157 35.9094 46.6972 38.8209 46.2172C39.4756 46.109 40.5666 45.5865 40.9785 45.5672C41.5879 45.5389 43.1334 46.1103 43.9042 46.221C44.9294 46.369 46.8287 46.7114 46.329 45.0549C43.4652 42.2181 42.0372 37.7673 42.7964 33.8005C42.9036 33.2393 43.1308 32.6601 43.2225 32.1066C43.5918 29.8851 42.8145 24.9709 41.1747 23.3131C38.9759 21.0903 37.0017 21.9874 34.4026 21.6811C33.9016 21.6219 33.5388 21.228 33.624 20.7157L35.5169 17.0552C35.371 16.9394 33.7661 17.7837 33.4291 17.8223C32.8532 17.8893 32.063 17.4118 31.4575 17.4401C31.3335 17.5585 32.4362 20.2588 32.4981 20.6913C32.5769 21.2332 32.3755 21.6141 31.7971 21.6811C30.0359 21.8844 28.6027 21.2229 27.0185 22.5061C25.1076 24.0545 25.6731 26.3546 25.3387 28.5401C25.0675 30.3137 24.2231 32.3319 24.0372 33.9884C23.9313 34.9383 24.3923 35.3566 25.2264 35.6436C26.7215 36.1571 28.6247 36.2588 30.1986 36.3232L30.2012 36.3245Z" fill="#111111"/>
<path d="M34.8405 31.7C37.131 31.7772 39.3441 31.6794 41.5442 31.0178L42 32.4105C39.7275 33.2896 37.2498 33.2793 34.8405 33.2419V31.7Z" fill="#111111"/>
<path d="M7.55838 13.9933C7.99479 13.8955 10.5306 13.9032 11.0109 13.9779C11.3169 14.0255 11.5403 14.2289 11.6242 14.5223L13.969 43.692C14.0206 44.1438 13.9109 44.6715 13.4125 44.7822C12.9761 44.88 10.4402 44.8723 9.95993 44.7976C9.65392 44.75 9.43055 44.5466 9.34663 44.2532L7.00189 15.0835C6.95024 14.6317 7.05999 14.104 7.55838 13.9933ZM10.1962 15.5147H8.6494L10.7759 43.2621H12.3227L10.1962 15.5147Z" fill="#111111"/>
<path d="M16.0632 13.9933C16.5009 13.8955 19.0329 13.9032 19.5158 13.9779C19.8489 14.0294 20.0916 14.2701 20.1446 14.6047L20.1549 43.9893C20.173 44.396 19.9276 44.7333 19.5158 44.7976C18.9593 44.8851 16.701 44.8838 16.1446 44.7976C15.8114 44.7461 15.5687 44.5054 15.5158 44.1708L15.5054 14.7862C15.4822 14.4297 15.7056 14.0718 16.0619 13.992L16.0632 13.9933ZM18.6042 15.5147H17.0574V43.2621H18.6042V15.5147Z" fill="#111111"/>
</g>
<defs>
<clipPath id="clip0_2194_13">
<rect width="48" height="48" fill="white"/>
</clipPath>
</defs>
</svg>
