<svg width="24" height="24" viewBox="0 0 24 24" fill="none" xmlns="http://www.w3.org/2000/svg">
<path d="M12 10.7999L8.09999 14.6999C7.91665 14.8832 7.68332 14.9749 7.39999 14.9749C7.11665 14.9749 6.88332 14.8832 6.69999 14.6999C6.51665 14.5166 6.42499 14.2832 6.42499 13.9999C6.42499 13.7166 6.51665 13.4832 6.69999 13.2999L11.3 8.6999C11.5 8.4999 11.7333 8.3999 12 8.3999C12.2667 8.3999 12.5 8.4999 12.7 8.6999L17.3 13.2999C17.4833 13.4832 17.575 13.7166 17.575 13.9999C17.575 14.2832 17.4833 14.5166 17.3 14.6999C17.1167 14.8832 16.8833 14.9749 16.6 14.9749C16.3167 14.9749 16.0833 14.8832 15.9 14.6999L12 10.7999Z" fill="#CCCCCC"/>
</svg>
