<svg width="48" height="48" viewBox="0 0 48 48" fill="none" xmlns="http://www.w3.org/2000/svg">
<path d="M12.8447 0C14.0232 0.436573 14.5838 1.19209 14.6836 2.47998C14.844 4.55491 14.5221 6.81175 14.724 8.90488C14.9117 9.64463 15.8965 9.7562 16.513 9.83623L18.8295 3.34464C19.7323 1.89788 21.0057 1.3934 22.6712 1.63472C26.7374 2.92504 31.1351 3.66721 35.1693 4.9927C36.3703 5.38683 37.3432 6.00894 37.791 7.28349C38.5168 9.34994 37.0997 12.4411 36.8288 14.5767C37.7138 15.103 38.2104 15.9943 38.1783 17.0555H45.7049V21.6467H44.2367V23.2863C44.7035 23.5228 45.2571 23.5543 45.7679 23.7847C47.0081 24.345 47.7303 25.4777 48 26.7995V46.1021C47.6543 47.1596 46.9808 47.8739 45.8463 47.9806C31.8526 47.8787 17.8174 48.1649 3.84863 47.8363C2.20099 47.4155 1.14611 45.9857 1 44.2782V2.19863C1.10335 1.0405 1.80303 0.352897 2.84009 0H12.8447ZM4.03276 1.59349C3.72033 1.63351 3.28674 1.52437 2.9957 1.6129C2.91255 1.63836 2.5633 1.9852 2.5633 2.01551V4.68588H4.03157V1.59349H4.03276ZM7.06195 1.59349H5.59368V4.68588H7.06195V1.59349ZM10.0911 1.59349H8.62287V4.68588H10.0911V1.59349ZM13.1203 4.68467V2.10768C13.1203 2.024 12.8091 1.64806 12.6879 1.61168C12.3957 1.52437 11.9657 1.6323 11.6509 1.59228V4.68467H13.1191H13.1203ZM33.8638 13.8673L35.2905 14.2262L36.533 8.6684C36.4368 7.47995 35.9569 6.88815 34.8747 6.51222C30.8156 5.10184 26.1803 4.41424 22.0559 3.10209C21.1744 3.06329 20.3548 3.54109 20.0245 4.37907L17.9849 10.2134C18.3103 10.2279 19.2203 10.6184 19.4579 10.4535C19.7263 10.2667 20.8632 6.06958 21.3051 5.49718C21.6638 4.98785 22.2649 4.76714 22.8731 4.8969C26.2944 6.05503 30.2715 6.56315 33.6309 7.78313C34.4055 8.06448 34.7844 8.43799 34.8652 9.31356L33.865 13.8673H33.8638ZM13.1203 6.18479H2.56449V7.77828H13.1203V6.18479ZM33.3138 9.27718L22.5417 6.45886L20.925 10.8246L32.2589 13.4974L32.4692 13.3349L33.3138 9.27839V9.27718ZM13.3033 9.27718H2.56449V44.6505C2.56449 45.2059 3.71321 46.3835 4.26202 46.3835H29.9175C29.952 46.2828 29.826 46.1773 29.826 46.1494V43.4317L29.6882 43.2911H4.03276V18.5531H32.1199V17.0542H36.6174C36.6898 16.4734 36.52 16.0489 35.9224 15.9361L14.9058 11.0611C14.1372 10.7991 13.4399 10.1079 13.3033 9.27718ZM44.2367 18.5531H33.5894V20.1466H39.6477V21.6455H35.1503V24.6446C33.1629 24.8847 31.109 25.2861 31.2955 27.8303H46.4403C46.7586 25.2933 44.6204 24.8762 42.6769 24.6446V21.6455H41.2087V20.1466H44.2379V18.5531H44.2367ZM32.1199 20.1466H5.59368V41.7922H29.826V26.6589C29.826 25.5711 31.2753 24.06 32.2411 23.6889C32.6854 23.518 33.2068 23.5192 33.5894 23.2851V21.6455H32.1211V20.1466H32.1199ZM46.4391 29.4226H31.2943V43.2911H46.4391V29.4226ZM46.4391 44.8846H31.2943C31.2765 45.406 31.2503 46.2731 31.8966 46.3774L46.0696 46.335C46.6113 45.9954 46.4106 45.44 46.4391 44.8846Z" fill="#111111"/>
<path d="M18.7915 21.6733C25.8833 21.335 30.6516 29.2564 27.0867 35.577C23.7653 41.4658 15.5176 41.8272 11.7222 36.2379C7.64048 30.2265 11.6853 22.0129 18.7915 21.6745V21.6733ZM18.3329 23.2668C13.472 23.7349 10.3917 29.0538 12.1071 33.6888C14.2691 39.5279 22.101 40.4763 25.4925 35.2617C29.0895 29.7317 24.7691 22.6471 18.3317 23.2668H18.3329Z" fill="#111111"/>
<path d="M38.619 30.9506C45.6016 30.5952 46.0922 41.2937 39.3246 41.7909C32.247 42.3099 31.6079 31.3083 38.619 30.9506ZM40.9319 33.0788C37.3515 31.0306 33.6903 34.8809 35.7015 38.5118L40.9319 33.0788ZM42.1233 34.2964L36.8015 39.6359C40.3581 41.7036 44.1297 37.9406 42.1233 34.2964Z" fill="#111111"/>
<path d="M22.4823 25.6765L20.6613 29.1763C21.0165 29.5595 21.3835 29.984 21.3847 30.5443L25.3274 30.6425C25.2098 31.3143 25.2015 31.9595 25.0257 32.6289C24.598 34.2636 23.4267 35.6606 21.9894 36.438L20.0828 33.1843L18.4137 33.1807L16.5107 36.4465C16.3479 36.5629 15.2752 35.6885 15.0899 35.5163C13.7773 34.2915 13.0883 32.4506 13.118 30.6413L16.9609 30.5358C17.088 30.0167 17.3553 29.5704 17.6974 29.1703L15.8716 25.6777C18.0372 24.5074 20.3191 24.4771 22.48 25.6777L22.4823 25.6765ZM20.3714 26.4247C19.6076 26.3168 18.8414 26.2719 18.0764 26.4247C17.9694 26.5375 19.0552 28.3202 19.2251 28.5785L20.3714 26.4247ZM19.7026 31.5496C20.4379 30.9093 19.3878 29.6371 18.6525 30.3866C17.973 31.0791 18.9911 32.1693 19.7026 31.5496ZM17.1593 32.1402H14.8642C14.9367 32.9272 15.4819 33.5821 15.9203 34.2018C16.1056 34.2418 16.0355 34.1448 16.0783 34.0793C16.4786 33.4681 16.81 32.7829 17.1593 32.1402ZM23.5835 32.1402H21.197L22.436 34.2005C22.7282 34.0599 23.7118 32.2554 23.5835 32.1402Z" fill="#111111"/>
</svg>
