<svg width="48" height="48" viewBox="0 0 48 48" fill="none" xmlns="http://www.w3.org/2000/svg">
<path d="M8.31324 48C5.18562 47.2348 5.25047 42.9493 8.44542 42.3857L8.48782 37.7007C5.17315 37.1146 5.1931 32.6462 8.48782 32.0513L8.50403 16.0013C5.22054 15.2924 5.13574 10.9405 8.48782 10.3031L8.50403 5.68942C7.56001 5.39136 6.77811 5.05322 6.3167 4.11772C5.39263 2.24296 6.58856 0.175329 8.63622 0H39.2614C41.1594 0.0688791 42.4476 1.90858 41.8428 3.72448C41.4612 4.86788 40.5783 5.37633 39.4871 5.68942L39.5033 10.3031C42.8554 10.938 42.7706 15.3075 39.4871 16.0013V32.0013C41.223 32.4045 42.4514 33.9612 41.8428 35.7846C41.4612 36.928 40.5783 37.4364 39.4871 37.7495L39.5033 42.3632C42.7195 42.9205 42.8367 47.226 39.6779 48H8.31324ZM23.9014 1.87852H8.54643C8.26959 1.87852 7.83811 2.536 7.85183 2.85535C7.8643 3.13713 8.29827 3.75454 8.54643 3.75454H23.9014V1.87977V1.87852ZM33.5162 1.87852H25.7683V9.23732C25.7683 9.26487 25.9965 9.63682 26.0489 9.7057C26.6637 10.5285 27.8509 10.5197 28.422 9.6531C28.7649 9.13338 28.5604 8.50971 29.0293 8.10645C29.5381 7.66938 30.4073 7.94364 30.5245 8.5861C30.7577 9.86976 30.0295 12.9067 31.0944 13.732C31.7068 14.2054 32.566 14.1916 33.0997 13.6005C33.2007 13.4878 33.5162 12.9017 33.5162 12.799V1.87852ZM35.3831 3.75329H39.4435C39.7203 3.75329 40.1518 3.0958 40.1381 2.77646C40.1256 2.49468 39.6916 1.87727 39.4435 1.87727H35.3831V3.75203V3.75329ZM23.9014 5.62805H10.3671V10.3156H24.182C24.192 10.0776 23.9014 9.60802 23.9014 9.42517V5.62805ZM37.624 5.62805H35.3843V10.3156H37.624V5.62805ZM28.6627 12.1904H8.54643C8.26959 12.1904 7.83811 12.8478 7.85183 13.1672C7.8643 13.449 8.29827 14.0664 8.54643 14.0664H29.0356C28.7525 13.4928 28.6452 12.8253 28.6627 12.1916V12.1904ZM35.0102 14.0651H39.4447C39.7216 14.0651 40.1531 13.4076 40.1393 13.0883C40.1269 12.8065 39.6929 12.1891 39.4447 12.1891H35.3843C35.4142 12.8291 35.322 13.4953 35.0114 14.0639L35.0102 14.0651ZM37.624 15.9399H10.3671V32.0639H37.624V15.9399ZM8.56639 33.9587C7.70093 34.3156 7.61114 35.2636 8.43046 35.7433H39.5607C40.3177 35.2937 40.3177 34.4584 39.5607 34.01L8.56639 33.9587ZM37.624 37.6882H10.3671V42.3757H37.624V37.6882ZM8.56639 44.2705C7.70093 44.6274 7.61114 45.5755 8.43046 46.0551H39.5607C40.3177 45.6055 40.3177 44.7702 39.5607 44.3219L8.56639 44.2705Z" fill="#111111"/>
</svg>
