<svg width="217" height="36" viewBox="0 0 217 36" fill="none" xmlns="http://www.w3.org/2000/svg">
<g clip-path="url(#clip0_2231_39)">
<path d="M36.8412 12.7474L35.0934 14.0392L33.7327 15.0863L32.8958 15.7123L32.3379 14.1075L31.8482 12.7474L31.2561 11.0743L32.3379 11.3873C32.4802 10.8979 32.5485 10.4085 32.5485 9.88494C32.5485 6.36233 29.6506 3.49986 26.1265 3.49986C23.963 3.49986 22.0444 4.58111 20.8886 6.25421C20.5755 5.2071 20.0859 4.22828 19.4596 3.35759C19.3571 3.21532 19.249 3.07874 19.1465 2.93647C20.9285 1.13249 23.4051 0.0170898 26.1265 0.0170898C31.6091 0.0170898 36.0385 4.44453 36.0385 9.89063C36.0385 10.7613 35.936 11.5979 35.6912 12.4003L36.8412 12.7474Z" fill="white"/>
<path d="M36.0556 26.1322C36.0556 31.5726 31.6206 36.0057 26.1436 36.0057C20.6667 36.0057 16.2657 31.5726 16.2657 26.1322V21.9096H19.7557V26.1322C19.7557 29.6548 22.6536 32.5172 26.1436 32.5172C29.6336 32.5172 32.5657 29.6548 32.5657 26.1322C32.5657 22.6095 29.6678 19.7471 26.1436 19.7471H9.87787C4.43508 19.7471 0 15.3139 0 9.87354C0 4.43313 4.43508 0 9.87787 0C13.2654 0 16.2657 1.70724 18.0079 4.32501C19.1238 5.89567 19.7557 7.81347 19.7557 9.87354V14.0961H16.2657V9.87354C16.2657 6.35093 13.402 3.48846 9.87787 3.48846C6.35372 3.48846 3.48999 6.35093 3.48999 9.87354C3.48999 13.3961 6.35372 16.2586 9.87787 16.2586H26.1436C31.6206 16.2586 36.0556 20.6917 36.0556 26.1322Z" fill="white"/>
<path d="M43.7815 6.90863H51.587C52.8623 6.90863 53.9953 7.16472 54.9973 7.68258C55.9993 8.19475 56.7793 8.9061 57.3372 9.81663C57.8952 10.7272 58.1798 11.7629 58.1798 12.9352C58.1798 13.6238 57.9977 14.3408 57.6333 15.0863C57.2689 15.8318 56.7793 16.4919 56.1644 17.0553L57.0241 17.5106C57.9464 18.074 58.6979 18.8536 59.2786 19.8438C59.8594 20.834 60.1554 21.8242 60.1554 22.8087C60.1554 24.0209 59.8764 25.1021 59.3185 26.0525C58.7606 27.0028 57.9749 27.7426 56.9615 28.2776C55.9481 28.8125 54.798 29.08 53.5 29.08H43.7815V6.90863ZM54.2287 15.3936C54.8436 14.7676 55.151 13.9766 55.151 13.0319C55.151 11.9621 54.8037 11.0914 54.1148 10.4255C53.4202 9.75972 52.515 9.42396 51.3934 9.42396H46.8786V16.3895H51.8204C52.8111 16.3497 53.6138 16.0139 54.223 15.3879L54.2287 15.3936ZM56.0392 25.546C56.7394 24.8574 57.0924 23.9696 57.0924 22.877C57.0924 21.7047 56.7394 20.7543 56.0392 20.0145C55.3389 19.2747 54.4166 18.9105 53.2722 18.9105H46.8786V26.576H53.2722C54.4166 26.576 55.3389 26.2346 56.0392 25.546Z" fill="white"/>
<path d="M75.8633 29.0914L69.5039 20.4869H65.2851V29.0914H62.188V6.90863H71.0183C72.4929 6.90863 73.7909 7.19317 74.9239 7.75656C76.0512 8.31995 76.9336 9.12235 77.5599 10.1524C78.1861 11.1824 78.4993 12.3661 78.4993 13.6978C78.4993 15.1887 78.021 16.5147 77.0646 17.6642C76.1081 18.8138 74.7645 19.6333 73.028 20.117L79.6493 29.0857H75.8633V29.0914ZM74.0984 16.7879C74.9467 16.0025 75.368 14.9611 75.368 13.6636C75.368 12.3661 74.9467 11.3645 74.0984 10.5906C73.2558 9.81094 72.1399 9.42396 70.7564 9.42396H65.2851V17.9659H70.7564C72.1399 17.9659 73.2558 17.5732 74.0984 16.7822V16.7879Z" fill="white"/>
<path d="M124.581 29.0914H121.831L116.604 11.9108L111.623 29.0914H108.845L102.2 6.91431H105.189L110.234 24.0038L115.096 6.91431H118.113L123.066 24.0038L127.837 6.91431H130.826L124.575 29.0914H124.581Z" fill="white"/>
<path d="M151.675 29.0914H148.35L135.927 11.8824V29.0914H132.83V6.90863H136.127L148.55 24.0892V6.90863H151.681V29.0857L151.675 29.0914Z" fill="white"/>
<path d="M158.758 25.8306C159.754 26.5078 160.836 26.8435 162.003 26.8435C163.54 26.8435 164.747 26.5135 165.629 25.8419C166.506 25.1761 166.945 24.277 166.945 23.1445C166.945 22.399 166.711 21.7616 166.239 21.2495C165.766 20.7373 165.18 20.3162 164.479 19.9918C163.773 19.6674 162.828 19.3146 161.644 18.9333C160.152 18.4268 158.934 17.9488 158 17.4935C157.067 17.0383 156.275 16.3952 155.626 15.5587C154.977 14.7221 154.658 13.6466 154.658 12.332C154.658 11.1767 154.983 10.1752 155.626 9.31585C156.275 8.45654 157.163 7.8021 158.296 7.34684C159.424 6.89157 160.705 6.66394 162.134 6.66394C163.87 6.66394 165.396 7.07937 166.711 7.92161C168.032 8.75815 169.006 9.99875 169.643 11.632L166.808 12.571C166.438 11.4784 165.846 10.6418 165.049 10.0557C164.246 9.4695 163.329 9.16789 162.293 9.14513C160.932 9.14513 159.839 9.42967 159.019 10.0101C158.2 10.5906 157.784 11.3702 157.784 12.3604C157.784 13.1059 158.017 13.7376 158.479 14.2384C158.94 14.7449 159.52 15.1603 160.226 15.4847C160.927 15.8091 161.878 16.1733 163.062 16.5773C164.553 17.1009 165.772 17.5903 166.705 18.0455C167.639 18.5008 168.43 19.1496 169.08 19.9804C169.723 20.817 170.047 21.8868 170.047 23.1786C170.047 24.3908 169.723 25.4607 169.08 26.3883C168.43 27.3159 167.508 28.0443 166.313 28.5564C165.117 29.0686 163.728 29.3304 162.145 29.3304C160.346 29.3304 158.723 28.8979 157.289 28.0272C155.848 27.1565 154.624 25.9045 153.611 24.2713L156.213 22.9396C156.913 24.1916 157.767 25.1533 158.769 25.8306H158.758Z" fill="white"/>
<path d="M180.33 16.7594L190.111 29.0914H186.188L178.149 18.9731L175.183 21.9722V29.0914H172.086V6.94277H175.183V17.6984L185.693 6.90863H189.877L180.324 16.7537L180.33 16.7594Z" fill="white"/>
<path d="M195.331 6.90863V29.0857H192.234V6.90863H195.331Z" fill="white"/>
<path d="M217 29.0914H213.675L201.252 11.8824V29.0914H198.155V6.90863H201.452L213.874 24.0892V6.90863H217.006V29.0857L217 29.0914Z" fill="white"/>
<path d="M99.1374 21.7958C97.7084 24.6469 94.8333 26.4224 91.6393 26.4224C87.0221 26.4224 83.2645 22.6665 83.2645 18.0512H85.1034L81.955 14.0449L78.8066 18.0512H80.6456C80.6456 24.1119 85.5817 29.0459 91.645 29.0459C95.8353 29.0459 99.6043 26.7183 101.489 22.9681L99.1431 21.7958H99.1374Z" fill="white"/>
<path d="M84.0444 14.2042C85.4735 11.3532 88.3486 9.57762 91.5425 9.57762C96.1598 9.57762 99.9174 13.3335 99.9174 17.9488H98.0784L101.227 21.9551L104.375 17.9488H102.536C102.536 11.8881 97.6002 6.95416 91.5368 6.95416C87.3466 6.95416 83.5776 9.2817 81.6931 13.0319L84.0388 14.2042H84.0444Z" fill="white"/>
</g>
<defs>
<clipPath id="clip0_2231_39">
<rect width="217" height="36" fill="white"/>
</clipPath>
</defs>
</svg>
